<svg height="570" viewBox="0 0 420 570" width="420" xmlns="http://www.w3.org/2000/svg" xmlns:xlink="http://www.w3.org/1999/xlink"><radialGradient id="a" cx="190.796" cy="173.508" gradientUnits="userSpaceOnUse" r="154.305"><stop offset="0" stop-color="#afd2ed"/><stop offset="1" stop-color="#77b2e0"/></radialGradient><linearGradient id="b" gradientUnits="userSpaceOnUse" x1="210" x2="210" y1="319.278" y2="544.653"><stop offset="0" stop-color="#274059"/><stop offset="1" stop-color="#00578c"/></linearGradient><linearGradient id="c" gradientUnits="userSpaceOnUse" x1="32.853" x2="387.781" y1="381.708" y2="381.708"><stop offset="0" stop-color="#e05619"/><stop offset=".624" stop-color="#fbb040"/><stop offset="1" stop-color="#fcd8a6"/></linearGradient><linearGradient id="d" gradientUnits="userSpaceOnUse" x1="32.853" x2="369.397" y1="349.381" y2="349.381"><stop offset="0" stop-color="#e67844"/><stop offset=".624" stop-color="#f9b55e"/><stop offset=".997" stop-color="#fdddaf"/></linearGradient><radialGradient id="e" cx="202.818" cy="160.191" gradientUnits="userSpaceOnUse" r="80.85"><stop offset=".002" stop-color="#209cdb"/><stop offset=".025" stop-color="#1f9bda"/><stop offset=".657" stop-color="#1379b9"/><stop offset="1" stop-color="#0e6cac"/></radialGradient><g fill="#0084c6"><path d="m358.474 280.193c1.847-3.018 3.748-6 5.449-9.095l1.323-2.292 1.243-2.337c.817-1.563 1.68-3.1 2.411-4.7a101.025 101.025 0 0 0 7.406-19.669 66.928 66.928 0 0 0 1.838-10.265 52.231 52.231 0 0 0 -6.1-30c-3.134-6.2-7.162-11.972-10.721-18.211a59.664 59.664 0 0 1 -4.658-9.864 56.106 56.106 0 0 1 -2.706-10.619 41.839 41.839 0 0 1 -.1-11.029c.386-3.6.979-7.1 1.438-10.569a155.84 155.84 0 0 0 1.5-20.9c.1-3.5-.046-7-.115-10.506-.134-3.5-.373-7.011-.578-10.516-.321-3.5-.6-7.021-.955-10.491l-.379-2.514-.194-1.257-.3-1.239-.6-2.478c-.226-.82-.523-1.622-.78-2.434a59.851 59.851 0 0 0 -4.093-9.414c-.871-1.486-1.714-2.99-2.648-4.443l-1.439-2.151-.724-1.076-.783-1.038a113.788 113.788 0 0 0 -14.02-15.446 185.938 185.938 0 0 0 -34.16-24.492 202.2 202.2 0 0 0 -18.837-9.576c-3.22-1.438-6.5-2.739-9.813-3.95a73.007 73.007 0 0 0 -10.143-3.022c7.007 1.092 13.759 3.439 20.362 6a203.386 203.386 0 0 1 19.368 8.836 177.633 177.633 0 0 1 35.311 23.9 109.039 109.039 0 0 1 14.73 15.663l.829 1.068.772 1.113 1.542 2.22c1 1.507 1.909 3.078 2.843 4.63a63.594 63.594 0 0 1 4.486 9.955c.289.868.615 1.725.871 2.6l.665 2.672.33 1.337.219 1.363.421 2.728c.38 3.562.674 7.086 1.015 10.631.224 3.552.481 7.1.633 10.663.086 3.565.254 7.127.161 10.7a160.17 160.17 0 0 1 -1.633 21.382c-.966 7.084-2.459 13.905-1.466 20.565a52.456 52.456 0 0 0 2.4 9.933 56.3 56.3 0 0 0 4.272 9.346c3.383 6.08 7.351 12.031 10.46 18.541a53.706 53.706 0 0 1 5.584 31.621 66.642 66.642 0 0 1 -2.229 10.53 102.539 102.539 0 0 1 -8.346 19.638c-.8 1.583-1.737 3.094-2.623 4.629l-1.347 2.292-1.429 2.242c-1.879 3.014-3.951 5.889-5.963 8.795z"/><path d="m96.609 72.821c-24.409 43.833-39.55 26.045-58.126 63.5-13.223 26.667-26.083 76.808 33.717 111.808 33.666 19.7 31.186 18.14 52.646 45.852s38.031 46.868 94.733 49.378 130.572-23.967 147.3-83.12-28.677-71.323-30.3-115.315 1.85-85.709-24.122-113.131c-27.228-28.75-154.184-69.707-215.848 41.028z"/><path d="m333.719 82.688c-2.548-19.575-8.153-37.057-21.259-50.895-27-28.512-152.077-69-214.292 38.333 9.446-3.023 20.667-8.3 35.848-20.642 88.884-72.284 174.82-3.596 199.703 33.204z"/><path d="m37.94 137.434c-13.019 26.926-24.723 76.175 34.26 110.7 3.3 1.931 6.243 3.653 8.905 5.223-1.58-15.564-.351-30.91-14.737-49.973-17.551-23.263-26.968-45.923-28.428-65.95z"/><path d="m343.417 171.3c-1.433 5.552-3.092 11.428-4.949 17.74-12.428 42.232 15.949 58.657-18.692 109.44s-79.3 25.984-134.516 12.841c-17.335-4.127-34.681-3.248-50.5-4.955 17.734 20.932 37.014 34.881 84.818 37 56.7 2.51 130.572-23.967 147.3-83.12 12.866-45.49-11.004-63.197-23.461-88.946z"/></g><path d="m96.609 72.821c.511-.918 1.039-1.8 1.559-2.695-14.773 4.726-25.2 3.952-39.653 16.129-15.175 12.789-22.077 30.593-20.575 51.179.181-.374.362-.745.543-1.11 18.576-37.458 33.717-19.67 58.126-63.503z" fill="#4b97cc"/><path d="m343.417 171.3c8.151-31.595 8.811-52.483-5.066-80.762a66.643 66.643 0 0 0 -4.632-7.846c2.5 19.214 2.06 40.444 2.863 62.236a64.532 64.532 0 0 0 6.835 26.372z" fill="#4b97cc"/><path d="m81.105 253.352c1 9.859 3.129 19.8 11.067 30.837 11.4 15.842 26.172 20.4 42.589 22.173-3.3-3.9-6.547-8.033-9.915-12.381-19.356-24.996-19.246-26.181-43.741-40.629z" fill="#4b97cc"/><path d="m319.776 298.476c34.641-50.783 6.264-67.208 18.692-109.44 1.857-6.312 3.516-12.188 4.949-17.74a64.532 64.532 0 0 1 -6.835-26.372c-.8-21.792-.361-43.022-2.863-62.236-24.883-36.8-110.823-105.488-199.7-33.2-15.181 12.347-26.4 17.619-35.848 20.642-.52.9-1.048 1.777-1.559 2.695-24.409 43.833-39.55 26.045-58.126 63.5-.181.365-.362.736-.543 1.11 1.462 20.027 10.877 42.687 28.428 65.945 14.386 19.063 13.157 34.409 14.737 49.973 24.495 14.45 24.385 15.633 43.741 40.629 3.368 4.348 6.615 8.485 9.915 12.381 15.818 1.707 33.164.828 50.5 4.955 55.21 13.142 99.87 37.941 134.512-12.842z" fill="url(#a)"/><path d="m125.357 567.121-117.977-68.114c-7.391-4.267-11.576-22.29 2.079-30.1l256.864-134.917c8.534-4.927 21.563-5.467 28.954-1.2l117.977 54.733c10.4 5.48 6.456 25.171-2.079 30.1l-256.863 148.3c-8.535 4.925-21.564 5.466-28.955 1.198z" fill="url(#b)"/><path d="m125.357 512.255-117.977-68.114c-7.391-4.267-11.576-22.29 2.079-30.1l256.864-134.917c8.534-4.928 21.563-5.468 28.954-1.2l117.977 54.733c10.4 5.48 6.456 25.17-2.079 30.1l-256.863 148.3c-8.535 4.925-21.564 5.465-28.955 1.198z" fill="#81b1d6"/><path d="m125.357 505.565-117.977-68.114c-7.391-4.267-8.7-17.83 2.079-23.408l256.864-141.61c8.534-4.927 21.563-5.467 28.954-1.2l117.977 61.424c8.984 4.839 6.456 18.48-2.079 23.407l-256.863 148.3c-8.535 4.928-21.564 5.468-28.955 1.201z" fill="#cae8f6"/><path d="m125.357 498.874-117.977-68.114c-7.391-4.267-6.455-11.79 2.079-16.717l256.864-148.3c8.534-4.927 21.563-5.468 28.954-1.2l117.977 68.114c7.391 4.267 6.456 11.789-2.079 16.717l-256.863 148.3c-8.535 4.926-21.564 5.467-28.955 1.2z" fill="#fff"/><path d="m163.221 484.167-130.368-75.268 224.56-129.649 130.368 75.267z" fill="url(#c)"/><path d="m257.413 279.25-224.56 129.649 18.384 10.614 318.16-75.609z" fill="url(#d)"/><ellipse cx="82.203" cy="455.675" fill="#cae8f6" rx="8.253" ry="14.295" transform="matrix(.00542795 -.99998527 .99998527 .00542795 -373.912 535.405)"/><path d="m350.636 317.007a3.9 3.9 0 0 1 -1.916-.446l-25.23-14.561a1.518 1.518 0 0 1 -.861-1.3 1.979 1.979 0 0 1 1.15-1.606 5.037 5.037 0 0 1 2.448-.613 3.9 3.9 0 0 1 1.915.446l25.231 14.567a1.516 1.516 0 0 1 .861 1.3 1.977 1.977 0 0 1 -1.15 1.606 5.037 5.037 0 0 1 -2.448.607z" fill="#cae8f6"/><path d="m323.779 300.092a5.036 5.036 0 0 1 2.448-.612 3.9 3.9 0 0 1 1.915.445l25.231 14.567a1.726 1.726 0 0 1 .757.8 1.363 1.363 0 0 0 .1-.506 1.516 1.516 0 0 0 -.861-1.3l-25.231-14.567a3.9 3.9 0 0 0 -1.915-.446 5.037 5.037 0 0 0 -2.448.613 1.979 1.979 0 0 0 -1.15 1.606 1.266 1.266 0 0 0 .1.5 2.332 2.332 0 0 1 1.054-1.1z" fill="#81b1d6"/><path d="m72.152 477.859-11.567-6.709a4.315 4.315 0 0 1 -1.8-3.43c0-1.316.808-1.927 1.8-1.357l11.567 6.709a4.314 4.314 0 0 1 1.8 3.43c-.005 1.317-.812 1.928-1.8 1.357z" fill="#0069aa"/><path d="m73.947 476.5a4.314 4.314 0 0 0 -1.8-3.43l-9.919-5.727v.058a4.312 4.312 0 0 0 1.795 3.43l9.919 5.727c0-.019 0-.038 0-.058z" fill="#274059"/><rect fill="url(#e)" height="161.601" rx="16.765" width="161.601" x="121.893" y="79.293"/><circle cx="202.88" cy="134.945" fill="#f1f2f2" r="32.959"/><path d="m169.747 185.2h-14.127v1.37l.276.033c4.919.6 5.415 1.244 5.415 3.751v26.136h5.6v-13.585h2.258c5.322 0 16.392 0 16.392-8.829.009-8.876-10.284-8.876-15.812-8.876m-.687 15.3h-2.142v-10.146c0-2.381 0-2.745 4.546-2.745 5.106 0 7.922 2.3 7.922 6.467 0 5.659-5.219 6.421-10.326 6.421" fill="#f1f2f2"/><path d="m217.237 185.205h-3.292v24.395c-.87-1.211-17.509-24.392-17.509-24.392h-11.878v1.365l.276.038c4.807.626 5.42.837 5.42 4.293v25.596h3.605v-26.24c.875 1.211 18.879 26.235 18.879 26.235h4.817v-31.29z" fill="#f1f2f2"/><path d="m221.843 199.823c0 8.544 5.215 17.163 16.864 17.163a36.874 36.874 0 0 0 10.784-1.286l.234-.061v-2.567l-.431.117a30.132 30.132 0 0 1 -7.445 1.118c-9.306 0-13.833-5.121-13.833-15.667 0-7.042 3.349-11.251 8.965-11.251 3.765 0 5.972 1.477 6.566 4.391l.051.252h6.169l-.047-.355c-.211-1.637-1.721-6.973-12.393-6.973-10.269 0-15.484 5.088-15.484 15.119" fill="#f1f2f2"/><path d="m231.733 169.448a3.9 3.9 0 1 1 3.872-3.912 3.907 3.907 0 0 1 -3.872 3.912m0-8.694a4.8 4.8 0 1 0 4.774 4.782 4.768 4.768 0 0 0 -4.774-4.782m-.6 5.249h.319c.98 0 .879.567.879 1.221a2.412 2.412 0 0 0 .163 1.08h1.236a7.1 7.1 0 0 1 -.14-1.633 1.018 1.018 0 0 0 -1.088-1.08v-.024a1.215 1.215 0 0 0 1.119-1.361 1.323 1.323 0 0 0 -1.415-1.469h-2.325v5.563h1.26v-2.3zm0-2.341h.568c.4 0 .653.21.653.731 0 .358-.156.824-.653.824h-.568z" fill="#f48024"/><path d="m220.473 139.984h-7.341a3.876 3.876 0 0 0 -.482-3.359l-11.967-20.731a36.753 36.753 0 0 0 -5.218-7.216c.039.023.07.038.1.054 4.79 2.62 14.363 8.025 32.7 18.8l1.057.614c3.383 1.975 5.405 5.016 4.8 7.247-.778 2.924-5.754 4.6-13.647 4.6m-23.888 20.669-1.042.6c-3.39 1.951-7.037 2.177-8.67.536-2.131-2.138-1.1-7.286 2.853-14.113l3.671-6.361a3.874 3.874 0 0 0 3.149 1.259h23.935a37.62 37.62 0 0 0 8.849-.9c-.031.016-.062.032-.1.055-4.674 2.83-14.145 8.437-32.644 18.927m-12.826-44.025.008-1.2c.016-3.912 1.641-7.193 3.872-7.784 2.924-.778 6.851 2.7 10.8 9.526l3.671 6.345a3.9 3.9 0 0 0 -2.667 2.107l-11.968 20.739a36.933 36.933 0 0 0 -3.639 8.11v-.116c-.124-5.467-.233-16.454-.078-37.73m19.122-17.247a35.552 35.552 0 1 0 35.552 35.552 35.554 35.554 0 0 0 -35.552-35.552" fill="#f48024"/><path d="m202.114 278.647v86.081" style="fill:none;stroke:#0069aa;stroke-linecap:round;stroke-miterlimit:10;stroke-width:9;stroke-dasharray:0 19.187"/></svg>